<svg width="62" height="62" viewBox="0 0 62 62" fill="none" xmlns="http://www.w3.org/2000/svg">
<mask id="mask0" mask-type="alpha" maskUnits="userSpaceOnUse" x="0" y="0" width="62" height="62">
<circle cx="31" cy="31" r="31" fill="#00D1FF"/>
</mask>
<g mask="url(#mask0)">
<g clip-path="url(#clip0)">
<rect width="124" height="62" fill="#CE1720"/>
<path d="M0.137778 0H0V0.137778H0.137778V0Z" fill="#CE1720"/>
<path d="M0.688904 0H14.4667V62H0.688904V0Z" fill="white"/>
<path d="M7.8809 0V2.24578H7.27468V0H7.8809ZM0.137787 3.92667H1.22623V3.03111H1.77734V1.94267H2.5489V0.992H3.18268V0H5.09779V0.992H5.71779V1.94267H6.48934V3.03111H7.04045V3.92667H7.8809V5.31822H7.04045V6.21378H6.48934V7.30222H5.71779V8.25289H5.09779V9.27244H4.6569V10.1267H3.62356V9.27244H3.18268V8.25289H2.5489V7.30222H1.77734V6.21378H1.22623V5.31822H0.137787V3.92667ZM0.137787 0.468444H1.22623V1.70844H0.137787V0.468444ZM4.4089 2.08044H3.84401V2.92089H3.30668V3.98178H2.78312V5.29067H3.30668V6.35156H3.84401V7.17822H4.4089V6.35156H4.94623V5.29067H5.48356V3.98178H4.94623V2.92089H4.4089V2.08044ZM4.46401 3.99556V5.23556H3.7889V3.99556H4.46401ZM0.137787 7.24711H1.22623V8.58356H0.137787V7.24711ZM7.8809 7.37111V9.25867H7.27468V7.37111H7.8809ZM6.3929 9.46533V10.4022H7.05423V11.3667H7.8809V12.6342H7.05423V13.6124H6.3929V14.5493H5.62134V13.6124H4.96001V12.6342H4.4089V11.3667H4.96001V10.4022H5.62134V9.46533H6.3929ZM0.137787 11.3667H1.22623V10.4022H1.88756V9.46533H2.64534V10.4022H3.30668V11.3667H3.85779V12.6342H3.30668V13.6124H2.64534V14.5493H1.88756V13.6124H1.22623V12.6342H0.137787V11.3667ZM6.29645 11.3942H5.73156V12.5929H6.29645V11.3942ZM2.56268 11.3942H1.99779V12.5929H2.56268V11.3942ZM2.78312 31.248V30.6004H2.31468V29.6222H1.69468V29.0298H1.22623V28.0791H0.137787V25.8747H1.22623V26.5084H1.69468V27.4316H2.31468V28.5338H3.19645V27.5418H3.84401V26.8116H4.31245V25.9436H4.93245V25.0204H5.38712V24.0836H5.82801V23.1191H6.42045V21.824H5.63512V20.6529H4.7809V19.9502H3.34801V20.9698H4.17468V21.8929H3.62356V23.0227H2.97601V24.0147H2.16312V23.0227H1.48801V21.8929H1.07468V20.9698H0.137787V19.22H1.22623V18.0902H1.63956V17.2222H2.02534V16.2302H2.57645V15.252H3.11379V14.6044H3.76134V13.6262H4.54668V14.6044H5.19423V15.252H5.74534V16.2302H6.28268V17.2222H6.72356V18.0764H7.16445V18.8204H7.8809V24.2902H7.06801V25.2133H6.83379V26.1778H6.22756V27.1147H5.85556V27.8036H5.46979V28.5338H4.80845V29.2502H3.85779V31.248H2.78312ZM7.8809 14.5356V16.4231H7.27468V14.5356H7.8809ZM0.137787 14.8938H1.22623V16.2302H0.137787V14.8938ZM0.137787 22.9262H1.22623V24.2627H0.137787V22.9262ZM7.85334 26.3156V27.528H7.27468V26.3156H7.85334ZM7.05423 31.248V30.4902H6.69601V29.8978H6.17245V28.1204H6.69601V28.8369H7.24712V29.884H7.85334V31.2342L7.05423 31.248ZM4.9049 31.2342V30.3524H5.48356V31.2342" fill="#CE1720"/>
<path d="M7.8809 31.2755V33.5213H7.27468V31.2755H7.8809ZM0.137787 35.2022H1.22623V34.3067H1.77734V33.2182H2.5489V32.2675H3.18268V31.2755H5.09779V32.2675H5.71779V33.2182H6.48934V34.3067H7.04045V35.2022H7.8809V36.5938H7.04045V37.4893H6.48934V38.5778H5.71779V39.5284H5.09779V40.548H4.6569V41.4022H3.62356V40.548H3.18268V39.5284H2.5489V38.5778H1.77734V37.4893H1.22623V36.5938H0.137787V35.2022ZM0.137787 31.744H1.22623V32.984H0.137787V31.744ZM4.4089 33.356H3.84401V34.1964H3.30668V35.2573H2.78312V36.5662H3.30668V37.6271H3.84401V38.4538H4.4089V37.6271H4.94623V36.5662H5.48356V35.2573H4.94623V34.1964H4.4089V33.356ZM4.46401 35.2711V36.5111H3.7889V35.2711H4.46401ZM0.137787 38.5227H1.22623V39.8591H0.137787V38.5227ZM7.8809 38.6467V40.5342H7.27468V38.6467H7.8809ZM6.3929 40.7409V41.6778H7.05423V42.6422H7.8809V43.9098H7.05423V44.888H6.3929V45.8249H5.62134V44.888H4.96001V43.9098H4.4089V42.6422H4.96001V41.6778H5.62134V40.7409H6.3929ZM0.137787 42.6422H1.22623V41.6778H1.88756V40.7409H2.64534V41.6778H3.30668V42.6422H3.85779V43.9098H3.30668V44.888H2.64534V45.8249H1.88756V44.888H1.22623V43.9098H0.137787V42.6422ZM6.29645 42.6698H5.73156V43.8684H6.29645V42.6698ZM2.56268 42.6698H1.99779V43.8684H2.56268V42.6698ZM2.78312 62.5235V61.876H2.31468V60.8978H1.69468V60.3053H1.22623V59.3547H0.137787V57.1502H1.22623V57.784H1.69468V58.7071H2.31468V59.8093H3.19645V58.8173H3.84401V58.0871H4.31245V57.2191H4.93245V56.296H5.38712V55.3591H5.82801V54.3947H6.42045V53.0995H5.63512V51.9284H4.7809V51.2258H3.34801V52.2453H4.17468V53.1684H3.62356V54.2982H2.97601V55.2902H2.16312V54.2982H1.48801V53.1684H1.07468V52.2453H0.137787V50.4955H1.22623V49.3658H1.63956V48.4978H2.02534V47.5058H2.57645V46.5275H3.11379V45.88H3.76134V44.9018H4.54668V45.88H5.19423V46.5275H5.74534V47.5058H6.28268V48.4978H6.72356V49.352H7.16445V50.096H7.8809V55.5658H7.06801V56.4889H6.83379V57.4533H6.22756V58.3902H5.85556V59.0791H5.46979V59.8093H4.80845V60.5258H3.85779V62.5235H2.78312ZM7.8809 45.8111V47.6987H7.27468V45.8111H7.8809ZM0.137787 46.1693H1.22623V47.5058H0.137787V46.1693ZM0.137787 54.2018H1.22623V55.5382H0.137787V54.2018ZM7.85334 57.5911V58.8035H7.27468V57.5911H7.85334ZM7.05423 62.5235V61.7658H6.69601V61.1733H6.17245V59.396H6.69601V60.1124H7.24712V61.1595H7.85334V62.5098L7.05423 62.5235ZM4.9049 62.5098V61.628H5.48356V62.5098" fill="#CE1720"/>
<path d="M7.30222 0V2.24578H7.90845V0H7.30222ZM15.0453 3.92667H13.9569V3.03111H13.4058V1.94267H12.6342V0.992H12.0004V0H10.0853V0.992H9.46533V1.94267H8.69378V3.03111H8.14267V3.92667H7.30222V5.31822H8.14267V6.21378H8.69378V7.30222H9.46533V8.25289H10.0853V9.27244H10.5262V10.1267H11.5596V9.27244H12.0004V8.25289H12.6342V7.30222H13.4058V6.21378H13.9569V5.31822H15.0453V3.92667ZM15.0453 0.468444H13.9569V1.70844H15.0453V0.468444ZM10.7742 2.08044H11.3391V2.92089H11.8764V3.98178H12.4V5.29067H11.8764V6.35156H11.3391V7.17822H10.7742V6.35156H10.2369V5.29067H9.69956V3.98178H10.2369V2.92089H10.7742V2.08044ZM10.7191 3.99556V5.23556H11.3942V3.99556H10.7191ZM15.0453 7.24711H13.9569V8.58356H15.0453V7.24711ZM7.30222 7.37111V9.25867H7.90845V7.37111H7.30222ZM8.79022 9.46533V10.4022H8.12889V11.3667H7.30222V12.6342H8.12889V13.6124H8.79022V14.5493H9.56178V13.6124H10.2231V12.6342H10.7742V11.3667H10.2231V10.4022H9.56178V9.46533H8.79022ZM15.0453 11.3667H13.9569V10.4022H13.2956V9.46533H12.5378V10.4022H11.8764V11.3667H11.3253V12.6342H11.8764V13.6124H12.5378V14.5493H13.2956V13.6124H13.9569V12.6342H15.0453V11.3667ZM8.88667 11.3942H9.45156V12.5929H8.88667V11.3942ZM12.6204 11.3942H13.1853V12.5929H12.6204V11.3942ZM12.4 31.248V30.6004H12.8684V29.6222H13.4884V29.0298H13.9569V28.0791H15.0453V25.8747H13.9569V26.5084H13.4884V27.4316H12.8684V28.5338H11.9867V27.5418H11.3391V26.8116H10.8707V25.9436H10.2507V25.0204H9.796V24.0836H9.35511V23.1191H8.76267V21.824H9.548V20.6529H10.4022V19.9502H11.8351V20.9698H11.0084V21.8929H11.5596V23.0227H12.2071V24.0147H13.02V23.0227H13.6951V21.8929H14.1084V20.9698H15.0453V19.22H13.9569V18.0902H13.5436V17.2222H13.1578V16.2302H12.6067V15.252H12.0693V14.6044H11.4218V13.6262H10.6364V14.6044H9.98889V15.252H9.43778V16.2302H8.90045V17.2222H8.45956V18.0764H8.01867V18.8204H7.30222V24.2902H8.11511V25.2133H8.34933V26.1778H8.95556V27.1147H9.32756V27.8036H9.71333V28.5338H10.3747V29.2502H11.3253V31.248H12.4ZM7.30222 14.5356V16.4231H7.90845V14.5356H7.30222ZM15.0453 14.8938H13.9569V16.2302H15.0453V14.8938ZM15.0453 22.9262H13.9569V24.2627H15.0453V22.9262ZM7.32978 26.3156V27.528H7.90845V26.3156H7.32978ZM8.12889 31.248V30.4902H8.48711V29.8978H9.01067V28.1204H8.48711V28.8369H7.936V29.884H7.32978V31.2342L8.12889 31.248ZM10.2782 31.2342V30.3524H9.69956V31.2342" fill="#CE1720"/>
<path d="M7.30222 31.2755V33.5213H7.90845V31.2755H7.30222ZM15.0453 35.2022H13.9569V34.3067H13.4058V33.2182H12.6342V32.2675H12.0004V31.2755H10.0853V32.2675H9.46533V33.2182H8.69378V34.3067H8.14267V35.2022H7.30222V36.5938H8.14267V37.4893H8.69378V38.5778H9.46533V39.5284H10.0853V40.548H10.5262V41.4022H11.5596V40.548H12.0004V39.5284H12.6342V38.5778H13.4058V37.4893H13.9569V36.5938H15.0453V35.2022ZM15.0453 31.744H13.9569V32.984H15.0453V31.744ZM10.7742 33.356H11.3391V34.1964H11.8764V35.2573H12.4V36.5662H11.8764V37.6271H11.3391V38.4538H10.7742V37.6271H10.2369V36.5662H9.69956V35.2573H10.2369V34.1964H10.7742V33.356ZM10.7191 35.2711V36.5111H11.3942V35.2711H10.7191ZM15.0453 38.5227H13.9569V39.8591H15.0453V38.5227ZM7.30222 38.6467V40.5342H7.90845V38.6467H7.30222ZM8.79022 40.7409V41.6778H8.12889V42.6422H7.30222V43.9098H8.12889V44.888H8.79022V45.8249H9.56178V44.888H10.2231V43.9098H10.7742V42.6422H10.2231V41.6778H9.56178V40.7409H8.79022ZM15.0453 42.6422H13.9569V41.6778H13.2956V40.7409H12.5378V41.6778H11.8764V42.6422H11.3253V43.9098H11.8764V44.888H12.5378V45.8249H13.2956V44.888H13.9569V43.9098H15.0453V42.6422ZM8.88667 42.6698H9.45156V43.8684H8.88667V42.6698ZM12.6204 42.6698H13.1853V43.8684H12.6204V42.6698ZM12.4 62.5235V61.876H12.8684V60.8978H13.4884V60.3053H13.9569V59.3547H15.0453V57.1502H13.9569V57.784H13.4884V58.7071H12.8684V59.8093H11.9867V58.8173H11.3391V58.0871H10.8707V57.2191H10.2507V56.296H9.796V55.3591H9.35511V54.3947H8.76267V53.0995H9.548V51.9284H10.4022V51.2258H11.8351V52.2453H11.0084V53.1684H11.5596V54.2982H12.2071V55.2902H13.02V54.2982H13.6951V53.1684H14.1084V52.2453H15.0453V50.4955H13.9569V49.3658H13.5436V48.4978H13.1578V47.5058H12.6067V46.5275H12.0693V45.88H11.4218V44.9018H10.6364V45.88H9.98889V46.5275H9.43778V47.5058H8.90045V48.4978H8.45956V49.352H8.01867V50.096H7.30222V55.5658H8.11511V56.4889H8.34933V57.4533H8.95556V58.3902H9.32756V59.0791H9.71333V59.8093H10.3747V60.5258H11.3253V62.5235H12.4ZM7.30222 45.8111V47.6987H7.90845V45.8111H7.30222ZM15.0453 46.1693H13.9569V47.5058H15.0453V46.1693ZM15.0453 54.2018H13.9569V55.5382H15.0453V54.2018ZM7.32978 57.5911V58.8035H7.90845V57.5911H7.32978ZM8.12889 62.5235V61.7658H8.48711V61.1733H9.01067V59.396H8.48711V60.1124H7.936V61.1595H7.32978V62.5098L8.12889 62.5235ZM10.2782 62.5098V61.628H9.69956V62.5098" fill="#CE1720"/>
<path d="M14.4667 41.3333H124V62H14.4667V41.3333Z" fill="#007C30"/>
</g>
</g>
<defs>
<clipPath id="clip0">
<rect width="124" height="62" fill="white"/>
</clipPath>
</defs>
</svg>
