<svg width="60" height="60" viewBox="0 0 60 60" fill="none" xmlns="http://www.w3.org/2000/svg">
<g clip-path="url(#clip0_1_3)">
<mask id="mask0_1_3" style="mask-type:luminance" maskUnits="userSpaceOnUse" x="0" y="0" width="60" height="60">
<path d="M30 60C46.5685 60 60 46.5685 60 30C60 13.4315 46.5685 0 30 0C13.4315 0 0 13.4315 0 30C0 46.5685 13.4315 60 30 60Z" fill="white"/>
</mask>
<g mask="url(#mask0_1_3)">
<path d="M80 -7H-28V29H80V-7Z" fill="#FF9534"/>
<path d="M80 29H-28V65H80V29Z" fill="#008A00"/>
<path d="M80 17H-28V41H80V17Z" fill="white"/>
</g>
<path d="M38.7206 28.75C38.7206 24.0718 34.9282 20.2794 30.25 20.2794C25.5718 20.2794 21.7794 24.0718 21.7794 28.75C21.7794 33.4282 25.5718 37.2206 30.25 37.2206V37.75C25.2794 37.75 21.25 33.7206 21.25 28.75C21.25 23.7794 25.2794 19.75 30.25 19.75C35.2206 19.75 39.25 23.7794 39.25 28.75C39.25 33.7206 35.2206 37.75 30.25 37.75V37.2206C34.9282 37.2206 38.7206 33.4282 38.7206 28.75Z" fill="#14007E"/>
<path d="M29.7206 36.9559C29.7206 37.2483 29.4836 37.4853 29.1912 37.4853C28.8988 37.4853 28.6618 37.2483 28.6618 36.9559C28.6618 36.6635 28.8988 36.4265 29.1912 36.4265C29.4836 36.4265 29.7206 36.6635 29.7206 36.9559Z" fill="#14007E"/>
<path d="M27.6029 36.4265C27.6029 36.7189 27.3659 36.9559 27.0735 36.9559C26.7811 36.9559 26.5441 36.7189 26.5441 36.4265C26.5441 36.1341 26.7811 35.8971 27.0735 35.8971C27.3659 35.8971 27.6029 36.1341 27.6029 36.4265Z" fill="#14007E"/>
<path d="M25.75 35.3676C25.75 35.66 25.513 35.897 25.2206 35.897C24.9282 35.897 24.6912 35.66 24.6912 35.3676C24.6912 35.0753 24.9282 34.8382 25.2206 34.8382C25.513 34.8382 25.75 35.0753 25.75 35.3676Z" fill="#14007E"/>
<path d="M24.1618 33.7794C24.1618 34.0718 23.9247 34.3088 23.6324 34.3088C23.34 34.3088 23.1029 34.0718 23.1029 33.7794C23.1029 33.487 23.34 33.25 23.6324 33.25C23.9247 33.25 24.1618 33.487 24.1618 33.7794Z" fill="#14007E"/>
<path d="M23.1029 31.9265C23.1029 32.2189 22.8659 32.4559 22.5735 32.4559C22.2811 32.4559 22.0441 32.2189 22.0441 31.9265C22.0441 31.6341 22.2811 31.3971 22.5735 31.3971C22.8659 31.3971 23.1029 31.6341 23.1029 31.9265Z" fill="#14007E"/>
<path d="M22.5735 29.8088C22.5735 30.1012 22.3365 30.3382 22.0441 30.3382C21.7517 30.3382 21.5147 30.1012 21.5147 29.8088C21.5147 29.5164 21.7517 29.2794 22.0441 29.2794C22.3365 29.2794 22.5735 29.5164 22.5735 29.8088Z" fill="#14007E"/>
<path d="M22.5735 27.6912C22.5735 27.9836 22.3365 28.2206 22.0441 28.2206C21.7517 28.2206 21.5147 27.9836 21.5147 27.6912C21.5147 27.3988 21.7517 27.1618 22.0441 27.1618C22.3365 27.1618 22.5735 27.3988 22.5735 27.6912Z" fill="#14007E"/>
<path d="M23.1029 25.5735C23.1029 25.8659 22.8659 26.103 22.5735 26.103C22.2811 26.103 22.0441 25.8659 22.0441 25.5735C22.0441 25.2812 22.2811 25.0441 22.5735 25.0441C22.8659 25.0441 23.1029 25.2812 23.1029 25.5735Z" fill="#14007E"/>
<path d="M24.1618 23.7206C24.1618 24.013 23.9247 24.25 23.6324 24.25C23.34 24.25 23.1029 24.013 23.1029 23.7206C23.1029 23.4282 23.34 23.1912 23.6324 23.1912C23.9247 23.1912 24.1618 23.4282 24.1618 23.7206Z" fill="#14007E"/>
<path d="M25.75 22.1323C25.75 22.4247 25.513 22.6618 25.2206 22.6618C24.9282 22.6618 24.6912 22.4247 24.6912 22.1323C24.6912 21.84 24.9282 21.6029 25.2206 21.6029C25.513 21.6029 25.75 21.84 25.75 22.1323Z" fill="#14007E"/>
<path d="M27.6029 21.0735C27.6029 21.3659 27.3659 21.603 27.0735 21.603C26.7811 21.603 26.5441 21.3659 26.5441 21.0735C26.5441 20.7812 26.7811 20.5441 27.0735 20.5441C27.3659 20.5441 27.6029 20.7812 27.6029 21.0735Z" fill="#14007E"/>
<path d="M29.7206 20.5441C29.7206 20.8365 29.4836 21.0735 29.1912 21.0735C28.8988 21.0735 28.6618 20.8365 28.6618 20.5441C28.6618 20.2517 28.8988 20.0147 29.1912 20.0147C29.4836 20.0147 29.7206 20.2517 29.7206 20.5441Z" fill="#14007E"/>
<path d="M30.7794 36.9559C30.7794 37.2483 31.0164 37.4853 31.3088 37.4853C31.6012 37.4853 31.8382 37.2483 31.8382 36.9559C31.8382 36.6635 31.6012 36.4265 31.3088 36.4265C31.0164 36.4265 30.7794 36.6635 30.7794 36.9559Z" fill="#14007E"/>
<path d="M29.1912 28.75C29.1912 29.3348 29.6652 29.8088 30.25 29.8088C30.8348 29.8088 31.3088 29.3348 31.3088 28.75C31.3088 28.1652 30.8348 27.6912 30.25 27.6912C29.6652 27.6912 29.1912 28.1652 29.1912 28.75Z" fill="#14007E"/>
<path d="M32.3302 21.398C32.2098 22.3692 32.0206 23.3213 31.7625 24.2544C31.5044 25.1875 31.1773 26.1016 30.7815 26.9966C30.7375 27.096 30.6927 27.1952 30.6471 27.2941C30.6587 27.1858 30.6712 27.0776 30.6845 26.9697C30.8049 25.9985 30.9941 25.0464 31.2522 24.1133C31.5103 23.1802 31.8374 22.2661 32.2332 21.3711C32.2772 21.2717 32.322 21.1725 32.3676 21.0735C32.356 21.1819 32.3435 21.2901 32.3302 21.398Z" fill="#14007E"/>
<path d="M26.6401 22.1236C27.2418 22.8954 27.7812 23.7025 28.2585 24.5448C28.7358 25.3871 29.1509 26.2647 29.5039 27.1775C29.5431 27.2789 29.5815 27.3807 29.6192 27.4829C29.5508 27.398 29.4832 27.3128 29.4163 27.227C28.8147 26.4552 28.2752 25.6481 27.7979 24.8058C27.3206 23.9635 26.9055 23.0859 26.5526 22.1731C26.5134 22.0717 26.4749 21.9699 26.4372 21.8676C26.5056 21.9525 26.5733 22.0378 26.6401 22.1236Z" fill="#14007E"/>
<path d="M33.9163 22.1236C33.3147 22.8954 32.7752 23.7025 32.2979 24.5448C31.8206 25.3871 31.4055 26.2647 31.0526 27.1775C31.0134 27.2789 30.9749 27.3807 30.9372 27.4829C31.0056 27.398 31.0733 27.3128 31.1401 27.227C31.7418 26.4552 32.2812 25.6481 32.7585 24.8058C33.2358 23.9635 33.6509 23.0859 34.0039 22.1731C34.0431 22.0717 34.0815 21.9699 34.1192 21.8676C34.0508 21.9525 33.9832 22.0378 33.9163 22.1236Z" fill="#14007E"/>
<path d="M25.0006 23.382C25.79 23.9604 26.5292 24.5897 27.2182 25.2698C27.9072 25.9499 28.546 26.681 29.1346 27.4628C29.2 27.5496 29.2648 27.6371 29.3289 27.7252C29.24 27.6622 29.1516 27.5986 29.0639 27.5343C28.2745 26.956 27.5353 26.3267 26.8463 25.6466C26.1573 24.9665 25.5185 24.2354 24.9299 23.4536C24.8645 23.3667 24.7997 23.2793 24.7356 23.1912C24.8245 23.2542 24.9129 23.3177 25.0006 23.382Z" fill="#14007E"/>
<path d="M23.804 25.1244C24.7216 25.4644 25.6049 25.8673 26.4538 26.3327C27.3027 26.7981 28.1173 27.3263 28.8975 27.9171C28.9841 27.9827 29.0704 28.049 29.1562 28.1162C29.0534 28.08 28.951 28.043 28.8491 28.0052C27.9314 27.6652 27.0482 27.2623 26.1993 26.7969C25.3504 26.3315 24.5357 25.8033 23.7556 25.2125C23.6689 25.1469 23.5826 25.0806 23.4968 25.0134C23.5996 25.0496 23.702 25.0866 23.804 25.1244Z" fill="#14007E"/>
<path d="M22.8983 26.7343C23.8708 26.844 24.825 27.0228 25.7608 27.2707C26.6967 27.5186 27.6143 27.8356 28.5136 28.2217C28.6135 28.2646 28.7131 28.3083 28.8126 28.3528C28.7041 28.3424 28.5958 28.3311 28.4878 28.3189C27.5153 28.2092 26.5611 28.0304 25.6253 27.7825C24.6894 27.5346 23.7718 27.2176 22.8725 26.8315C22.7726 26.7887 22.673 26.745 22.5735 26.7004C22.682 26.7109 22.7903 26.7221 22.8983 26.7343Z" fill="#14007E"/>
<path d="M35.6816 23.382C34.8921 23.9604 34.1529 24.5897 33.4639 25.2698C32.7749 25.9499 32.1361 26.681 31.5475 27.4628C31.4822 27.5496 31.4174 27.6371 31.3532 27.7252C31.4422 27.6622 31.5305 27.5986 31.6182 27.5343C32.4077 26.956 33.1469 26.3267 33.8359 25.6466C34.5249 24.9665 35.1637 24.2354 35.7523 23.4536C35.8177 23.3667 35.8824 23.2793 35.9466 23.1912C35.8576 23.2542 35.7693 23.3177 35.6816 23.382Z" fill="#14007E"/>
<path d="M36.8782 25.1244C35.9606 25.4644 35.0773 25.8673 34.2284 26.3327C33.3795 26.7981 32.5649 27.3263 31.7847 27.9171C31.698 27.9827 31.6118 28.049 31.5259 28.1162C31.6287 28.08 31.7311 28.043 31.8331 28.0052C32.7507 27.6652 33.634 27.2623 34.4829 26.7969C35.3318 26.3315 36.1464 25.8033 36.9266 25.2125C37.0133 25.1469 37.0995 25.0806 37.1853 25.0134C37.0825 25.0496 36.9801 25.0866 36.8782 25.1244Z" fill="#14007E"/>
<path d="M37.7838 26.7343C36.8114 26.844 35.8572 27.0228 34.9213 27.2707C33.9855 27.5186 33.0678 27.8356 32.1686 28.2217C32.0687 28.2646 31.969 28.3083 31.8696 28.3528C31.9781 28.3424 32.0864 28.3311 32.1944 28.3189C33.1669 28.2092 34.121 28.0304 35.0569 27.7825C35.9927 27.5346 36.9104 27.2176 37.8096 26.8315C37.9095 26.7887 38.0092 26.745 38.1086 26.7004C38.0001 26.7109 37.8919 26.7221 37.7838 26.7343Z" fill="#14007E"/>
<path d="M22.8966 28.724C23.8658 28.5889 24.8345 28.5252 25.8026 28.533C26.7707 28.5408 27.7383 28.6201 28.7053 28.7709C28.8127 28.7876 28.9201 28.8052 29.0275 28.8237C28.9198 28.8405 28.8121 28.8565 28.7044 28.8715C27.7352 29.0066 26.7665 29.0702 25.7984 29.0624C24.8303 29.0547 23.8627 28.9753 22.8957 28.8246C22.7883 28.8078 22.6809 28.7903 22.5735 28.7718C22.6812 28.755 22.7889 28.739 22.8966 28.724Z" fill="#14007E"/>
<path d="M32.426 28.724C33.3953 28.5889 34.364 28.5252 35.332 28.533C36.3001 28.5408 37.2678 28.6201 38.2347 28.7709C38.3421 28.7876 38.4495 28.8052 38.5569 28.8237C38.4492 28.8405 38.3415 28.8565 38.2338 28.8715C37.2646 29.0066 36.2959 29.0702 35.3278 29.0624C34.3597 29.0547 33.3921 28.9753 32.4251 28.8246C32.3177 28.8078 32.2103 28.7903 32.1029 28.7718C32.2106 28.755 32.3183 28.739 32.426 28.724Z" fill="#14007E"/>
<path d="M28.4282 21.3167C28.8027 22.2208 29.1079 23.1424 29.3438 24.0814C29.5797 25.0203 29.7462 25.9768 29.8435 26.9506C29.8543 27.0587 29.8643 27.1671 29.8733 27.2757C29.83 27.1757 29.7875 27.0754 29.7459 26.975C29.3714 26.0709 29.0662 25.1493 28.8303 24.2104C28.5944 23.2714 28.4279 22.3149 28.3306 21.3412C28.3198 21.233 28.3098 21.1246 28.3007 21.016C28.3441 21.1161 28.3866 21.2163 28.4282 21.3167Z" fill="#14007E"/>
<path d="M30.3715 21.1319C30.5066 22.1012 30.5703 23.0699 30.5625 24.038C30.5547 25.0061 30.4753 25.9737 30.3246 26.9406C30.3079 27.048 30.2903 27.1554 30.2718 27.2628C30.255 27.1551 30.239 27.0474 30.224 26.9397C30.0889 25.9705 30.0252 25.0018 30.033 24.0337C30.0408 23.0656 30.1202 22.098 30.2709 21.131C30.2876 21.0236 30.3052 20.9162 30.3237 20.8089C30.3405 20.9166 30.3565 21.0242 30.3715 21.1319Z" fill="#14007E"/>
<path d="M32.3302 36.0376C32.2098 35.0664 32.0206 34.1143 31.7625 33.1812C31.5044 32.2481 31.1773 31.334 30.7815 30.439C30.7375 30.3396 30.6927 30.2404 30.6471 30.1414C30.6587 30.2498 30.6712 30.358 30.6845 30.4659C30.8049 31.4371 30.9941 32.3892 31.2522 33.3223C31.5103 34.2554 31.8374 35.1695 32.2332 36.0645C32.2772 36.1639 32.322 36.2631 32.3676 36.362C32.356 36.2537 32.3435 36.1455 32.3302 36.0376Z" fill="#14007E"/>
<path d="M26.6401 35.312C27.2418 34.5402 27.7812 33.7331 28.2585 32.8908C28.7358 32.0485 29.1509 31.1709 29.5039 30.2581C29.5431 30.1567 29.5815 30.0549 29.6192 29.9527C29.5508 30.0375 29.4832 30.1228 29.4163 30.2086C28.8147 30.9804 28.2752 31.7875 27.7979 32.6298C27.3206 33.4721 26.9055 34.3497 26.5526 35.2625C26.5134 35.3639 26.4749 35.4657 26.4372 35.5679C26.5056 35.483 26.5733 35.3978 26.6401 35.312Z" fill="#14007E"/>
<path d="M33.9163 35.312C33.3147 34.5402 32.7752 33.7331 32.2979 32.8908C31.8206 32.0485 31.4055 31.1709 31.0526 30.2581C31.0134 30.1567 30.9749 30.0549 30.9372 29.9527C31.0056 30.0375 31.0733 30.1228 31.1401 30.2086C31.7418 30.9804 32.2812 31.7875 32.7585 32.6298C33.2358 33.4721 33.6509 34.3497 34.0039 35.2625C34.0431 35.3639 34.0815 35.4657 34.1192 35.5679C34.0508 35.483 33.9832 35.3978 33.9163 35.312Z" fill="#14007E"/>
<path d="M25.0006 34.0536C25.79 33.4752 26.5292 32.8459 27.2182 32.1658C27.9072 31.4857 28.546 30.7546 29.1346 29.9728C29.2 29.8859 29.2648 29.7985 29.3289 29.7104C29.24 29.7734 29.1516 29.837 29.0639 29.9012C28.2745 30.4796 27.5353 31.1089 26.8463 31.789C26.1573 32.4691 25.5185 33.2002 24.9299 33.982C24.8645 34.0689 24.7997 34.1563 24.7356 34.2444C24.8245 34.1814 24.9129 34.1178 25.0006 34.0536Z" fill="#14007E"/>
<path d="M23.804 32.3112C24.7216 31.9711 25.6049 31.5683 26.4538 31.1029C27.3027 30.6375 28.1173 30.1093 28.8975 29.5185C28.9841 29.4529 29.0704 29.3865 29.1562 29.3194C29.0534 29.3556 28.951 29.3925 28.8491 29.4303C27.9314 29.7704 27.0482 30.1732 26.1993 30.6387C25.3504 31.1041 24.5357 31.6323 23.7556 32.223C23.6689 32.2887 23.5826 32.355 23.4968 32.4222C23.5996 32.3859 23.702 32.349 23.804 32.3112Z" fill="#14007E"/>
<path d="M22.8983 30.7013C23.8708 30.5916 24.825 30.4127 25.7608 30.1649C26.6967 29.917 27.6143 29.5999 28.5136 29.2139C28.6135 29.171 28.7131 29.1273 28.8126 29.0827C28.7041 29.0932 28.5958 29.1045 28.4878 29.1167C27.5153 29.2264 26.5611 29.4052 25.6253 29.6531C24.6894 29.9009 23.7718 30.218 22.8725 30.604C22.7726 30.6469 22.673 30.6906 22.5735 30.7352C22.682 30.7247 22.7903 30.7134 22.8983 30.7013Z" fill="#14007E"/>
<path d="M35.6816 34.0536C34.8921 33.4752 34.1529 32.8459 33.4639 32.1658C32.7749 31.4857 32.1361 30.7546 31.5475 29.9728C31.4822 29.8859 31.4174 29.7985 31.3532 29.7104C31.4422 29.7734 31.5305 29.837 31.6182 29.9012C32.4077 30.4796 33.1469 31.1089 33.8359 31.789C34.5249 32.4691 35.1637 33.2002 35.7523 33.982C35.8177 34.0689 35.8824 34.1563 35.9466 34.2444C35.8576 34.1814 35.7693 34.1178 35.6816 34.0536Z" fill="#14007E"/>
<path d="M36.8782 32.3112C35.9606 31.9711 35.0773 31.5683 34.2284 31.1029C33.3795 30.6375 32.5649 30.1093 31.7847 29.5185C31.698 29.4529 31.6118 29.3865 31.5259 29.3194C31.6287 29.3556 31.7311 29.3925 31.8331 29.4303C32.7507 29.7704 33.634 30.1732 34.4829 30.6387C35.3318 31.1041 36.1464 31.6323 36.9266 32.223C37.0133 32.2887 37.0995 32.355 37.1853 32.4222C37.0825 32.3859 36.9801 32.349 36.8782 32.3112Z" fill="#14007E"/>
<path d="M37.7838 30.7013C36.8114 30.5916 35.8572 30.4127 34.9213 30.1649C33.9855 29.917 33.0678 29.5999 32.1686 29.2139C32.0687 29.171 31.969 29.1273 31.8696 29.0827C31.9781 29.0932 32.0864 29.1045 32.1944 29.1167C33.1669 29.2264 34.121 29.4052 35.0569 29.6531C35.9927 29.9009 36.9104 30.218 37.8096 30.604C37.9095 30.6469 38.0092 30.6906 38.1086 30.7352C38.0001 30.7247 37.8919 30.7134 37.7838 30.7013Z" fill="#14007E"/>
<path d="M28.4282 36.1188C28.8027 35.2147 29.1079 34.2932 29.3438 33.3542C29.5797 32.4153 29.7462 31.4588 29.8435 30.485C29.8543 30.3768 29.8643 30.2685 29.8733 30.1599C29.83 30.2599 29.7875 30.3601 29.7459 30.4606C29.3714 31.3647 29.0662 32.2863 28.8303 33.2252C28.5944 34.1642 28.4279 35.1206 28.3306 36.0944C28.3198 36.2026 28.3098 36.3109 28.3007 36.4195C28.3441 36.3195 28.3866 36.2193 28.4282 36.1188Z" fill="#14007E"/>
<path d="M30.3715 36.3037C30.5066 35.3344 30.5703 34.3657 30.5625 33.3976C30.5547 32.4296 30.4753 31.4619 30.3246 30.495C30.3079 30.3876 30.2903 30.2802 30.2718 30.1728C30.255 30.2805 30.239 30.3882 30.224 30.4959C30.0889 31.4651 30.0252 32.4338 30.033 33.4019C30.0408 34.37 30.1202 35.3376 30.2709 36.3046C30.2876 36.412 30.3052 36.5194 30.3237 36.6267C30.3405 36.519 30.3565 36.4114 30.3715 36.3037Z" fill="#14007E"/>
<path d="M32.8971 36.4265C32.8971 36.7189 33.1341 36.9559 33.4265 36.9559C33.7189 36.9559 33.9559 36.7189 33.9559 36.4265C33.9559 36.1341 33.7189 35.8971 33.4265 35.8971C33.1341 35.8971 32.8971 36.1341 32.8971 36.4265Z" fill="#14007E"/>
<path d="M34.75 35.3676C34.75 35.66 34.987 35.897 35.2794 35.897C35.5718 35.897 35.8088 35.66 35.8088 35.3676C35.8088 35.0753 35.5718 34.8382 35.2794 34.8382C34.987 34.8382 34.75 35.0753 34.75 35.3676Z" fill="#14007E"/>
<path d="M36.3382 33.7794C36.3382 34.0718 36.5753 34.3088 36.8676 34.3088C37.16 34.3088 37.3971 34.0718 37.3971 33.7794C37.3971 33.487 37.16 33.25 36.8676 33.25C36.5753 33.25 36.3382 33.487 36.3382 33.7794Z" fill="#14007E"/>
<path d="M37.3971 31.9265C37.3971 32.2189 37.6341 32.4559 37.9265 32.4559C38.2189 32.4559 38.4559 32.2189 38.4559 31.9265C38.4559 31.6341 38.2189 31.3971 37.9265 31.3971C37.6341 31.3971 37.3971 31.6341 37.3971 31.9265Z" fill="#14007E"/>
<path d="M37.9265 29.8088C37.9265 30.1012 38.1635 30.3382 38.4559 30.3382C38.7483 30.3382 38.9853 30.1012 38.9853 29.8088C38.9853 29.5164 38.7483 29.2794 38.4559 29.2794C38.1635 29.2794 37.9265 29.5164 37.9265 29.8088Z" fill="#14007E"/>
<path d="M37.9265 27.6912C37.9265 27.9836 38.1635 28.2206 38.4559 28.2206C38.7483 28.2206 38.9853 27.9836 38.9853 27.6912C38.9853 27.3988 38.7483 27.1618 38.4559 27.1618C38.1635 27.1618 37.9265 27.3988 37.9265 27.6912Z" fill="#14007E"/>
<path d="M37.3971 25.5735C37.3971 25.8659 37.6341 26.103 37.9265 26.103C38.2189 26.103 38.4559 25.8659 38.4559 25.5735C38.4559 25.2812 38.2189 25.0441 37.9265 25.0441C37.6341 25.0441 37.3971 25.2812 37.3971 25.5735Z" fill="#14007E"/>
<path d="M36.3382 23.7206C36.3382 24.013 36.5753 24.25 36.8676 24.25C37.16 24.25 37.3971 24.013 37.3971 23.7206C37.3971 23.4282 37.16 23.1912 36.8676 23.1912C36.5753 23.1912 36.3382 23.4282 36.3382 23.7206Z" fill="#14007E"/>
<path d="M34.75 22.1323C34.75 22.4247 34.987 22.6618 35.2794 22.6618C35.5718 22.6618 35.8088 22.4247 35.8088 22.1323C35.8088 21.84 35.5718 21.6029 35.2794 21.6029C34.987 21.6029 34.75 21.84 34.75 22.1323Z" fill="#14007E"/>
<path d="M32.8971 21.0735C32.8971 21.3659 33.1341 21.603 33.4265 21.603C33.7189 21.603 33.9559 21.3659 33.9559 21.0735C33.9559 20.7812 33.7189 20.5441 33.4265 20.5441C33.1341 20.5441 32.8971 20.7812 32.8971 21.0735Z" fill="#14007E"/>
<path d="M30.7794 20.5441C30.7794 20.8365 31.0164 21.0735 31.3088 21.0735C31.6012 21.0735 31.8382 20.8365 31.8382 20.5441C31.8382 20.2517 31.6012 20.0147 31.3088 20.0147C31.0164 20.0147 30.7794 20.2517 30.7794 20.5441Z" fill="#14007E"/>
</g>
<defs>
<clipPath id="clip0_1_3">
<rect width="60" height="60" fill="white"/>
</clipPath>
</defs>
</svg>
