<svg width="60" height="60" viewBox="0 0 60 60" fill="none" xmlns="http://www.w3.org/2000/svg">
<g clip-path="url(#clip0_2_2)">
<mask id="mask0_2_2" style="mask-type:luminance" maskUnits="userSpaceOnUse" x="0" y="0" width="60" height="60">
<path d="M30 60C46.5685 60 60 46.5685 60 30C60 13.4315 46.5685 0 30 0C13.4315 0 0 13.4315 0 30C0 46.5685 13.4315 60 30 60Z" fill="white"/>
</mask>
<g mask="url(#mask0_2_2)">
<path d="M80 -7H-28V29H80V-7Z" fill="#2B4A9F"/>
<path d="M80 29H-28V65H80V29Z" fill="#2B4A9F"/>
<path d="M80 17H-28V41H80V17Z" fill="white"/>
</g>
<path d="M33.2148 24.4102H38.6807L35.9473 29.2402L38.6807 34.0703H33.2148L30.5293 38.8174L27.7188 34.0703H22L24.8594 29.2402L22 24.4102H27.7188L30.5293 19.6631L33.2148 24.4102ZM29.5586 34.0703L30.498 35.6572L31.3955 34.0703H29.5586ZM34.1113 32.4863H35.9658L35.0381 30.8467L34.1113 32.4863ZM28.6211 25.9941L26.6982 29.2402L28.6211 32.4863H32.292L34.1289 29.2402L32.292 25.9941H28.6211ZM24.7773 32.4863H26.7812L25.7783 30.793L24.7773 32.4863ZM24.7773 25.9941L25.7783 27.6865L26.7812 25.9941H24.7773ZM34.1113 25.9941L35.0381 27.6328L35.9658 25.9941H34.1113ZM29.5586 24.4102H31.3955L30.498 22.8232L29.5586 24.4102Z" fill="#2B4A9F"/>
</g>
<defs>
<clipPath id="clip0_2_2">
<rect width="60" height="60" fill="white"/>
</clipPath>
</defs>
</svg>
