<svg width="386" height="386" viewBox="0 0 386 386" fill="none" xmlns="http://www.w3.org/2000/svg">
<mask id="mask0" style="mask-type:alpha" maskUnits="userSpaceOnUse" x="0" y="0" width="386" height="386">
<circle cx="193" cy="193" r="193" fill="#C4C4C4"/>
</mask>
<g mask="url(#mask0)">
<path d="M493 -7H-107V393H493V-7Z" fill="#FF0000"/>
<path d="M133 -7H-107V393H133V-7Z" fill="#006600"/>
<path fill-rule="evenodd" clip-rule="evenodd" d="M211.24 255.04C181.03 254.13 42.5 167.66 41.55 153.89L49.1996 141.133C62.9406 161.099 204.56 245.193 218.47 242.213L211.24 255.036" fill="#FFFF00"/>
<path d="M211.24 255.04C181.03 254.13 42.5 167.66 41.55 153.89L49.1996 141.133C62.9406 161.099 204.56 245.193 218.47 242.213L211.24 255.036" stroke="black" stroke-width="0.573" stroke-linecap="round" stroke-linejoin="round"/>
<path fill-rule="evenodd" clip-rule="evenodd" d="M47.59 139.4C44.8799 146.694 83.739 170.718 130.493 199.154C177.245 227.588 217.558 245.16 220.546 242.64C220.729 242.315 222.016 240.099 221.898 240.117C221.338 240.961 219.975 241.227 217.847 240.614C205.216 236.971 172.272 221.849 131.473 197.108C90.6754 172.365 55.1794 149.564 49.6624 139.876C49.2788 139.205 49.0054 137.98 49.0609 137.028L48.9269 137.026L47.7522 139.079L47.5908 139.401H47.5899L47.59 139.4ZM211.95 255.44C211.438 256.37 210.482 256.4 208.668 256.201C197.368 254.951 163.079 238.276 122.506 213.988C75.2964 185.728 36.3064 159.978 40.5364 153.248L41.6873 151.214L41.914 151.284C38.1103 162.689 118.862 208.862 123.616 211.806C170.34 240.753 209.731 257.657 213.217 253.264L211.949 255.445V255.443L211.95 255.44Z" fill="#FFFF00" stroke="black" stroke-width="0.573" stroke-linecap="round" stroke-linejoin="round"/>
<path fill-rule="evenodd" clip-rule="evenodd" d="M133.17 162.23C163.407 161.991 200.72 158.098 222.193 149.54L217.567 142.023C204.875 149.048 167.357 153.667 132.915 154.358C92.1786 153.983 63.4246 150.19 49.0176 140.523L44.6504 148.528C71.1344 159.735 98.2734 162.115 133.17 162.231" fill="#FFFF00"/>
<path d="M133.17 162.23C163.407 161.991 200.72 158.098 222.193 149.54L217.567 142.023C204.875 149.048 167.357 153.667 132.915 154.358C92.1786 153.983 63.4246 150.19 49.0176 140.523L44.6504 148.528C71.1344 159.735 98.2734 162.115 133.17 162.231" stroke="black" stroke-width="0.573" stroke-linecap="round" stroke-linejoin="round"/>
<path fill-rule="evenodd" clip-rule="evenodd" d="M223.44 149.71C222.701 150.892 208.697 155.721 188.067 159.285C174.079 161.418 155.833 163.241 133.063 163.263C111.43 163.283 93.7581 161.743 80.3791 159.93C58.7231 156.534 47.5461 151.81 43.4141 150.14C43.8092 149.355 44.0631 148.803 44.4442 148.07C56.3392 152.806 67.5682 155.661 80.7232 157.685C94.0142 159.485 111.473 161.047 132.999 161.027C155.663 161.004 173.708 159.043 187.615 156.974C208.77 153.561 220.326 149.17 221.949 147.131L223.443 149.71H223.441H223.44ZM219.38 142.087C217.087 143.929 205.662 147.981 185.561 151.191C172.146 153.113 155.089 154.834 133.296 154.855C112.592 154.876 95.6768 153.48 82.8108 151.606C62.3968 148.94 51.5318 144.131 47.6148 142.729C48.0046 142.055 48.4014 141.386 48.8089 140.715C51.8568 142.25 62.3419 146.506 83.0349 149.438C95.7549 151.241 112.696 152.585 133.297 152.564C154.987 152.542 171.85 150.788 185.18 148.876C205.385 146.096 216.257 140.929 217.908 139.635L219.381 142.086V142.088L219.38 142.087Z" fill="#FFFF00" stroke="black" stroke-width="0.573" stroke-linecap="round" stroke-linejoin="round"/>
<path fill-rule="evenodd" clip-rule="evenodd" d="M33.88 198.66C52.478 208.663 93.785 213.704 132.874 214.051C168.465 214.107 214.832 208.549 232.171 199.361L231.694 189.349C226.269 197.826 176.581 205.958 132.488 205.625C88.3949 205.292 47.4499 198.482 33.8009 189.666L33.8803 198.657" fill="#FFFF00"/>
<path d="M33.88 198.66C52.478 208.663 93.785 213.704 132.874 214.051C168.465 214.107 214.832 208.549 232.171 199.361L231.694 189.349C226.269 197.826 176.581 205.958 132.488 205.625C88.3949 205.292 47.4499 198.482 33.8009 189.666L33.8803 198.657" stroke="black" stroke-width="0.573" stroke-linecap="round" stroke-linejoin="round"/>
<path fill-rule="evenodd" clip-rule="evenodd" d="M233.12 197.22L233.121 199.607C230.515 202.723 214.175 207.433 193.684 210.749C178.089 213.14 157.757 214.944 132.422 214.944C108.353 214.944 89.159 213.228 74.274 210.943C50.745 207.516 35.695 201.516 32.674 199.725L32.6871 196.94C41.7619 202.974 66.3482 207.387 74.6042 208.738C89.3922 211.008 108.472 212.712 132.421 212.712C157.637 212.712 177.855 210.92 193.352 208.545C208.053 206.421 228.996 200.899 233.119 197.221H233.12L233.12 197.22ZM233.13 188.728L233.131 191.115C230.525 194.229 214.185 198.939 193.694 202.255C178.099 204.646 157.767 206.45 132.432 206.45C108.363 206.45 89.169 204.735 74.284 202.448C50.755 199.024 35.705 193.024 32.684 191.232L32.6972 188.447C41.772 194.48 66.3582 198.894 74.6142 200.243C89.4022 202.515 108.482 204.219 132.431 204.219C157.647 204.219 177.865 202.427 193.362 200.05C208.063 197.926 229.006 192.403 233.129 188.726L233.13 188.728L233.13 188.728Z" fill="#FFFF00" stroke="black" stroke-width="0.573" stroke-linecap="round" stroke-linejoin="round"/>
<path fill-rule="evenodd" clip-rule="evenodd" d="M132.79 253.32C90.0181 253.065 53.3691 241.661 45.6301 239.776L51.2734 248.61C64.9434 254.361 100.697 262.93 133.2 261.981C165.704 261.033 194.11 258.515 214.128 248.77L219.915 239.615C206.273 246.04 159.847 253.254 132.79 253.32" fill="#FFFF00"/>
<path d="M132.79 253.32C90.0181 253.065 53.3691 241.661 45.6301 239.776L51.2734 248.61C64.9434 254.361 100.697 262.93 133.2 261.981C165.704 261.033 194.11 258.515 214.128 248.77L219.915 239.615C206.273 246.04 159.847 253.254 132.79 253.32" stroke="black" stroke-width="0.573" stroke-linecap="round" stroke-linejoin="round"/>
<path fill-rule="evenodd" clip-rule="evenodd" d="M216.3 246.72C215.45 248.019 214.583 249.302 213.704 250.549C204.262 253.879 189.385 257.374 183.107 258.393C170.283 261.036 150.442 262.987 132.833 262.996C94.9428 262.442 63.9278 255.024 49.3368 248.697L48.1595 246.673L48.3517 246.369L50.3483 247.143C76.2963 256.427 105.439 260.13 133.046 260.795C150.584 260.857 168.141 258.785 182.338 256.246C204.109 251.884 212.912 248.596 215.613 247.106L216.3 246.72H216.299L216.3 246.72ZM221.317 238.445C221.339 238.47 221.361 238.495 221.383 238.522C220.747 239.596 220.091 240.687 219.42 241.785C214.385 243.585 200.718 247.583 180.761 250.374C167.612 252.165 159.439 253.9 133.282 254.408C84.2674 253.161 52.5324 243.577 44.9934 241.213L43.876 239.07C72.282 246.485 101.298 251.662 133.284 252.191C157.215 251.681 167.396 249.919 180.436 248.141C203.707 244.522 215.432 240.691 218.951 239.585C218.907 239.522 218.855 239.455 218.797 239.386L221.32 238.443L221.318 238.445L221.317 238.445Z" fill="#FFFF00" stroke="black" stroke-width="0.55" stroke-linecap="round" stroke-linejoin="round"/>
<path fill-rule="evenodd" clip-rule="evenodd" d="M221.83 190.76C221.969 218.897 207.57 244.146 195.972 255.285C179.564 271.044 157.809 281.181 132.403 281.648C104.033 282.169 77.2831 263.674 70.1081 255.549C56.0801 239.664 44.6591 219.492 44.2931 192.306C46.0307 161.597 58.0861 140.206 75.5611 125.537C93.0361 110.868 116.304 103.724 135.682 104.235C158.04 104.825 184.157 115.793 202.203 137.567C214.026 151.833 219.146 167.315 221.83 190.76ZM132.644 94.418C187.129 94.418 231.94 138.756 231.94 193.121C231.94 247.485 187.129 291.825 132.644 291.825C78.1591 291.825 33.7201 247.486 33.7201 193.121C33.7201 138.756 78.1591 94.418 132.644 94.418" fill="#FFFF00"/>
<path d="M132.644 94.418C187.129 94.418 231.94 138.756 231.94 193.121C231.94 247.485 187.129 291.825 132.644 291.825C78.1591 291.825 33.7201 247.486 33.7201 193.121C33.7201 138.756 78.1591 94.418 132.644 94.418M221.83 190.76C221.969 218.897 207.57 244.146 195.972 255.285C179.564 271.044 157.809 281.181 132.403 281.648C104.033 282.169 77.2831 263.674 70.1081 255.549C56.0801 239.664 44.6591 219.492 44.2931 192.306C46.0307 161.597 58.0861 140.206 75.5611 125.537C93.0361 110.868 116.304 103.724 135.682 104.235C158.04 104.825 184.157 115.793 202.203 137.567C214.026 151.833 219.146 167.315 221.83 190.76Z" stroke="black" stroke-width="0.573" stroke-linecap="round" stroke-linejoin="round"/>
<path fill-rule="evenodd" clip-rule="evenodd" d="M132.91 94.08C187.444 94.08 231.921 138.563 231.921 193.102C231.921 247.64 187.443 292.122 132.91 292.122C78.376 292.122 33.899 247.641 33.899 193.102C33.899 138.563 78.377 94.08 132.91 94.08V94.08ZM36.078 193.102C36.078 246.362 79.814 289.944 132.91 289.944C186.007 289.944 229.743 246.362 229.743 193.102C229.743 139.84 186.006 96.2584 132.91 96.2584C79.814 96.2584 36.078 139.842 36.078 193.102Z" fill="#FFFF00" stroke="black" stroke-width="0.573" stroke-linecap="round" stroke-linejoin="round"/>
<path fill-rule="evenodd" clip-rule="evenodd" d="M132.99 102.31C182.721 102.31 223.683 143.131 223.683 193.014C223.683 242.898 182.72 283.717 132.99 283.717C83.2601 283.717 42.2971 242.898 42.2971 193.014C42.2971 143.131 83.2611 102.31 132.99 102.31V102.31ZM44.4751 193.013C44.4751 241.698 84.4541 281.537 132.99 281.537C181.526 281.537 221.505 241.698 221.505 193.013C221.505 144.327 181.527 104.488 132.99 104.488C84.4541 104.488 44.4751 144.327 44.4751 193.013Z" fill="#FFFF00" stroke="black" stroke-width="0.573" stroke-linecap="round" stroke-linejoin="round"/>
<path fill-rule="evenodd" clip-rule="evenodd" d="M136.98 93.68H128.495L128.505 292.64H137.019L136.98 93.68Z" fill="#FFFF00" stroke="black" stroke-width="0.573" stroke-linecap="round" stroke-linejoin="round"/>
<path fill-rule="evenodd" clip-rule="evenodd" d="M136.13 92.546H138.29L138.308 293.796H136.147L136.131 92.546H136.13ZM127.709 92.5478H129.885L129.888 293.798H127.71V92.5478H127.709Z" fill="#FFFF00" stroke="black" stroke-width="0.573" stroke-linecap="round" stroke-linejoin="round"/>
<path fill-rule="evenodd" clip-rule="evenodd" d="M231.99 196.935V189.58L226 184L192 175L143 170L84 173L42 183L33.52 189.28V196.637L55 187L106 179H155L191 183L216 189L231.99 196.935Z" fill="#FFFF00" stroke="black" stroke-width="0.573" stroke-linecap="round" stroke-linejoin="round"/>
<path fill-rule="evenodd" clip-rule="evenodd" d="M132.95 177.77C156.333 177.727 179.02 179.985 197.015 183.489C215.584 187.201 228.652 191.845 233.12 197.06L233.115 199.643C227.727 193.153 210.142 188.395 196.597 185.675C178.739 182.201 156.204 179.958 132.95 180.001C108.412 180.047 85.5631 182.371 67.9661 185.804C53.8461 188.606 35.0151 194.172 32.6641 199.662V196.973C33.9552 193.173 47.9771 187.494 67.6481 183.556C85.3771 180.099 108.268 177.815 132.95 177.77V177.77ZM132.96 169.278C156.343 169.236 179.03 171.495 197.025 174.997C215.594 178.711 228.662 183.353 233.13 188.568L233.125 191.151C227.737 184.662 210.152 179.903 196.607 177.184C178.749 173.709 156.214 171.466 132.96 171.511C108.422 171.555 85.6841 173.881 68.0851 177.312C54.4591 179.896 34.8591 185.682 32.6731 191.172V188.482C33.9642 184.723 48.2701 178.84 67.6581 175.065C85.3871 171.607 108.278 169.325 132.96 169.278V169.278Z" fill="#FFFF00" stroke="black" stroke-width="0.573" stroke-linecap="round" stroke-linejoin="round"/>
<path fill-rule="evenodd" clip-rule="evenodd" d="M132.48 125.96C169.329 125.776 201.47 131.112 216.175 138.645L221.539 147.924C208.758 141.036 174.083 133.874 132.534 134.945C98.6799 135.153 62.5069 138.672 44.3579 148.355L50.7614 137.646C65.6564 129.922 100.783 126.003 132.481 125.962" fill="#FFFF00"/>
<path d="M132.48 125.96C169.329 125.776 201.47 131.112 216.175 138.645L221.539 147.924C208.758 141.036 174.083 133.874 132.534 134.945C98.6799 135.153 62.5069 138.672 44.3579 148.355L50.7614 137.646C65.6564 129.922 100.783 126.003 132.481 125.962" stroke="black" stroke-width="0.573" stroke-linecap="round" stroke-linejoin="round"/>
<path fill-rule="evenodd" clip-rule="evenodd" d="M132.97 133.62C153.987 133.564 174.295 134.75 190.446 137.664C205.487 140.463 219.831 144.665 221.882 146.924L223.472 149.734C218.484 146.477 206.071 142.85 190.133 139.828C174.127 136.82 153.833 135.823 132.933 135.878C109.211 135.797 90.7812 137.049 74.9642 139.807C58.2362 142.937 46.6302 147.408 43.7672 149.533L45.3255 146.563C50.8886 143.725 59.7155 140.303 74.5485 137.633C90.9055 134.645 109.532 133.749 132.972 133.62H132.971L132.97 133.62ZM132.961 125.136C153.074 125.083 172.933 126.204 188.413 128.986C200.622 131.363 212.696 135.074 217.117 138.376L219.443 142.071C215.489 137.676 200.607 133.512 187.469 131.179C172.108 128.529 153.074 127.481 132.961 127.313C111.853 127.372 92.3457 128.665 77.2087 131.421C62.7677 134.169 53.4487 137.423 49.5057 139.964L51.5508 136.877C56.9922 134.013 65.7828 131.382 76.8538 129.231C92.1028 126.454 111.73 125.195 132.962 125.136H132.961Z" fill="#FFFF00" stroke="black" stroke-width="0.573" stroke-linecap="round" stroke-linejoin="round"/>
<path fill-rule="evenodd" clip-rule="evenodd" d="M182.15 234.26C163.932 230.859 145.681 230.365 132.933 230.515C71.5261 231.235 51.6891 243.124 49.2681 246.724L44.6787 239.243C60.3127 227.911 93.7517 221.556 133.266 222.206C153.784 222.542 171.49 223.904 186.385 226.789L182.149 234.262" fill="#FFFF00"/>
<path d="M182.15 234.26C163.932 230.859 145.681 230.365 132.933 230.515C71.5261 231.235 51.6891 243.124 49.2681 246.724L44.6787 239.243C60.3127 227.911 93.7517 221.556 133.266 222.206C153.784 222.542 171.49 223.904 186.385 226.789L182.149 234.262" stroke="black" stroke-width="0.573" stroke-linecap="round" stroke-linejoin="round"/>
<path fill-rule="evenodd" clip-rule="evenodd" d="M132.58 229.46C149.662 229.715 166.429 230.42 182.613 233.438L181.441 235.507C166.41 232.733 150.386 231.671 132.638 231.757C109.975 231.58 87.0531 233.697 67.0971 239.424C60.8003 241.177 50.3761 245.225 49.3131 248.57L48.1472 246.647C48.4832 244.67 54.7835 240.566 66.5612 237.257C89.4192 230.711 110.8 229.608 132.58 229.458V229.46L132.58 229.46ZM133.355 220.864C151.053 221.194 169.33 222.013 187.095 225.532L185.875 227.685C169.833 224.501 154.506 223.439 133.46 223.115C110.725 223.157 86.6087 224.778 64.6817 231.152C57.6026 233.214 45.3847 237.673 44.9777 241.202L43.8118 239.137C44.0772 235.931 54.6538 231.749 64.1698 228.981C86.2658 222.557 110.445 220.905 133.356 220.864L133.355 220.864Z" fill="#FFFF00" stroke="black" stroke-width="0.55" stroke-linecap="round" stroke-linejoin="round"/>
<path fill-rule="evenodd" clip-rule="evenodd" d="M220.58 240.38L213.201 251.829L192 233L137 196L75.0001 162L42.8101 150.99L49.6701 138.27L52.0001 137L72.0001 142L138 176L176 200L208 223L221 238L220.58 240.38Z" fill="#FFFF00" stroke="black" stroke-width="0.573" stroke-linecap="round" stroke-linejoin="round"/>
<path fill-rule="evenodd" clip-rule="evenodd" d="M41.65 151.29C47.296 147.461 88.789 165.945 132.205 192.124C175.506 218.378 216.882 248.045 213.147 253.597L211.919 255.529L211.355 255.974C211.476 255.887 212.098 255.126 211.294 253.068C209.449 246.997 180.099 223.577 131.4 194.173C83.9251 165.864 44.3591 148.802 40.4031 153.679L41.6501 151.29H41.6492L41.65 151.29ZM222.09 240.217C225.66 233.165 187.174 204.173 139.458 175.945C90.645 148.279 55.464 131.994 49.038 136.85L47.6102 139.449C47.5978 139.592 47.6622 139.272 47.9639 139.039C49.1324 138.02 51.0691 138.088 51.9431 138.072C63.0081 138.238 94.6101 152.781 138.949 178.2C158.377 189.515 221.02 229.691 220.781 240.989C220.798 241.96 220.861 242.161 220.496 242.641L222.09 240.218V240.216L222.09 240.217Z" fill="#FFFF00" stroke="black" stroke-width="0.573" stroke-linecap="round" stroke-linejoin="round"/>
<path d="M73.5999 204.01C73.5999 220.281 80.2627 234.997 91.0569 245.752C101.872 256.53 116.569 263.331 132.866 263.331C149.247 263.331 164.113 256.679 174.882 245.942C185.651 235.207 192.325 220.39 192.328 204.062H192.326V124.873L73.5859 124.732L73.5982 204.01H73.6002L73.5999 204.01Z" fill="white" stroke="black" stroke-width="0.67037"/>
<path d="M75.8199 204.12V204.165C75.8199 219.722 82.2613 233.889 92.5949 244.174C102.949 254.479 117.209 260.886 132.809 260.886C148.49 260.886 162.721 254.525 173.031 244.26C183.339 233.995 189.728 219.827 189.73 204.216H189.728V127.39L75.8879 127.372L75.8182 204.12L75.8199 204.12ZM166.84 150.372L166.844 199.264L166.803 204.435H166.804C166.804 205.796 166.722 207.347 166.563 208.669C165.638 216.398 162.083 223.135 156.818 228.376C150.654 234.512 142.147 238.318 132.771 238.318C123.444 238.318 115.132 234.38 108.942 228.218C102.592 221.898 98.9119 213.232 98.9119 204.271L98.8987 150.248L166.839 150.37L166.841 150.372L166.84 150.372Z" fill="#FF0000" stroke="black" stroke-width="0.50734"/>
<path d="M83.1899 147.43C83.3249 141.909 87.2423 140.602 87.2705 140.583C87.2987 140.564 91.5019 141.99 91.4878 147.481L83.19 147.43" fill="#FFFF00"/>
<path d="M79.8099 140.69L79.1282 147.035L83.2688 147.044C83.3085 141.794 87.2427 140.921 87.3379 140.941C87.427 140.936 91.3268 142.101 91.4308 147.044H95.5819L94.8323 140.65L79.8103 140.688V140.69L79.8099 140.69Z" fill="#FFFF00" stroke="black" stroke-width="0.5"/>
<path d="M78.8499 147.06H95.7959C96.1531 147.06 96.445 147.413 96.445 147.844C96.445 148.274 96.1531 148.625 95.7959 148.625H78.8499C78.4927 148.625 78.2008 148.274 78.2008 147.844C78.2008 147.413 78.4927 147.06 78.8499 147.06Z" fill="#FFFF00" stroke="black" stroke-width="0.5"/>
<path d="M85.0099 147.03C85.0284 143.717 87.272 142.78 87.2835 142.782C87.2844 142.782 89.6258 143.748 89.6444 147.03H85.01" fill="#FFFF00"/>
<path d="M85.0099 147.03C85.0284 143.717 87.272 142.78 87.2835 142.782C87.2844 142.782 89.6258 143.748 89.6444 147.03H85.01" stroke="black" stroke-width="0.5"/>
<path d="M79.2099 138.05H95.4549C95.7971 138.05 96.0775 138.368 96.0775 138.755C96.0775 139.142 95.7971 139.459 95.4549 139.459H79.2099C78.8677 139.459 78.5873 139.144 78.5873 138.755C78.5873 138.368 78.8677 138.05 79.2099 138.05Z" fill="#FFFF00" stroke="black" stroke-width="0.5"/>
<path d="M79.5499 139.47H95.0879C95.4151 139.47 95.6832 139.787 95.6832 140.174C95.6832 140.562 95.4151 140.878 95.0879 140.878H79.5499C79.2227 140.878 78.9546 140.562 78.9546 140.174C78.9546 139.787 79.2227 139.47 79.5499 139.47Z" fill="#FFFF00" stroke="black" stroke-width="0.5"/>
<path d="M84.5699 128.88L85.7966 128.882V129.753H86.6917V128.863L87.9484 128.867V129.754H88.8462V128.863H90.1038L90.1018 130.875C90.1018 131.191 89.8478 131.395 89.5533 131.395H85.142C84.8456 131.395 84.5722 131.158 84.5714 130.869L84.5684 128.881H84.5692L84.5699 128.88Z" fill="#FFFF00" stroke="black" stroke-width="0.5"/>
<path d="M89.19 131.57L89.4669 138.021L85.1641 138.005L85.4489 131.553L89.1899 131.57" fill="#FFFF00"/>
<path d="M89.19 131.57L89.4669 138.021L85.1641 138.005L85.4489 131.553L89.1899 131.57" stroke="black" stroke-width="0.5"/>
<path d="M83.9399 134.56L84.0713 138.038L79.9457 138.04L80.0621 134.56H83.9407H83.9398L83.9399 134.56Z" fill="#FFFF00" stroke="black" stroke-width="0.5"/>
<path d="M79.2999 132.04L80.4993 132.043V132.915H81.3768V132.023L82.6062 132.027V132.916H83.4855V132.023L84.7157 132.025L84.7137 134.037C84.7137 134.351 84.465 134.555 84.1775 134.555H79.8606C79.5713 134.555 79.3024 134.32 79.3015 134.03L79.2985 132.041H79.2993L79.2999 132.04Z" fill="#FFFF00" stroke="black" stroke-width="0.5"/>
<path d="M86.8999 133.61C86.8734 132.983 87.7765 132.976 87.7659 133.61V135.146H86.8999V133.61" fill="black"/>
<path d="M81.5698 135.84C81.5668 135.234 82.4068 135.222 82.3962 135.84V137.027H81.5702V135.84" fill="black"/>
<path d="M125.636 195.406V195.411C125.636 197.623 126.485 199.638 127.848 201.1C129.213 202.567 131.093 203.478 133.15 203.478C135.217 203.478 137.094 202.573 138.453 201.113C139.811 199.654 140.655 197.641 140.655 195.42V184.652L125.663 184.639L125.635 195.405" fill="#003399"/>
<path d="M129.074 190.221C129.895 190.221 130.56 189.556 130.56 188.735C130.56 187.914 129.895 187.249 129.074 187.249C128.253 187.249 127.588 187.914 127.588 188.735C127.588 189.556 128.253 190.221 129.074 190.221Z" fill="white"/>
<path d="M137.392 190.228C138.213 190.228 138.878 189.563 138.878 188.742C138.878 187.921 138.213 187.256 137.392 187.256C136.571 187.256 135.906 187.921 135.906 188.742C135.906 189.563 136.571 190.228 137.392 190.228Z" fill="white"/>
<path d="M133.225 194.221C134.046 194.221 134.711 193.556 134.711 192.735C134.711 191.914 134.046 191.249 133.225 191.249C132.404 191.249 131.739 191.914 131.739 192.735C131.739 193.556 132.404 194.221 133.225 194.221Z" fill="white"/>
<path d="M129.074 198.402C129.895 198.402 130.56 197.737 130.56 196.916C130.56 196.095 129.895 195.43 129.074 195.43C128.253 195.43 127.588 196.095 127.588 196.916C127.588 197.737 128.253 198.402 129.074 198.402Z" fill="white"/>
<path d="M137.383 198.391C138.204 198.391 138.869 197.726 138.869 196.905C138.869 196.084 138.204 195.419 137.383 195.419C136.562 195.419 135.897 196.084 135.897 196.905C135.897 197.726 136.562 198.391 137.383 198.391Z" fill="white"/>
</g>
</svg>
